<mxfile host="app.diagrams.net" modified="2023-06-14T12:56:40.422Z" agent="Mozilla/5.0 (Windows NT 10.0; Win64; x64) AppleWebKit/537.36 (KHTML, like Gecko) Chrome/114.0.0.0 Safari/537.36" etag="4vSApqFc6O2VBCvBzYV6" version="21.3.8" type="device" pages="3">
  <diagram name="Librarian " id="4z5xVrTkmvjwsIQtV63P">
    <mxGraphModel dx="1292" dy="605" grid="1" gridSize="10" guides="1" tooltips="1" connect="1" arrows="1" fold="1" page="1" pageScale="1" pageWidth="850" pageHeight="1100" math="0" shadow="0">
      <root>
        <mxCell id="0" />
        <mxCell id="1" parent="0" />
        <mxCell id="g9mIRtQmPd2xS8MklQOe-5" value="Librarian" style="shape=umlActor;verticalLabelPosition=bottom;verticalAlign=top;html=1;outlineConnect=0;" vertex="1" parent="1">
          <mxGeometry x="50" y="110" width="30" height="510" as="geometry" />
        </mxCell>
        <mxCell id="g9mIRtQmPd2xS8MklQOe-6" value="Cancel Membership" style="ellipse;whiteSpace=wrap;html=1;fillColor=#ffe6cc;strokeColor=#d79b00;" vertex="1" parent="1">
          <mxGeometry x="288" y="99" width="120" height="80" as="geometry" />
        </mxCell>
        <mxCell id="g9mIRtQmPd2xS8MklQOe-7" value="Issue Membership Card" style="ellipse;whiteSpace=wrap;html=1;fillColor=#ffe6cc;strokeColor=#d79b00;" vertex="1" parent="1">
          <mxGeometry x="288" y="190" width="120" height="80" as="geometry" />
        </mxCell>
        <mxCell id="g9mIRtQmPd2xS8MklQOe-8" value="Issue Book" style="ellipse;whiteSpace=wrap;html=1;fillColor=#ffe6cc;strokeColor=#d79b00;" vertex="1" parent="1">
          <mxGeometry x="293" y="270" width="120" height="80" as="geometry" />
        </mxCell>
        <mxCell id="g9mIRtQmPd2xS8MklQOe-9" value="Return Book" style="ellipse;whiteSpace=wrap;html=1;fillColor=#ffe6cc;strokeColor=#d79b00;" vertex="1" parent="1">
          <mxGeometry x="293" y="470" width="120" height="80" as="geometry" />
        </mxCell>
        <mxCell id="g9mIRtQmPd2xS8MklQOe-10" value="Update Member Detail" style="ellipse;whiteSpace=wrap;html=1;fillColor=#ffe6cc;strokeColor=#d79b00;" vertex="1" parent="1">
          <mxGeometry x="288" y="560" width="120" height="80" as="geometry" />
        </mxCell>
        <mxCell id="g9mIRtQmPd2xS8MklQOe-11" value="Maintain Book&lt;br&gt;&amp;nbsp;Record" style="ellipse;whiteSpace=wrap;html=1;fillColor=#ffe6cc;strokeColor=#d79b00;" vertex="1" parent="1">
          <mxGeometry x="408" y="350" width="120" height="80" as="geometry" />
        </mxCell>
        <mxCell id="g9mIRtQmPd2xS8MklQOe-12" value="Add Book" style="ellipse;whiteSpace=wrap;html=1;fillColor=#ffe6cc;strokeColor=#d79b00;" vertex="1" parent="1">
          <mxGeometry x="690" y="200" width="120" height="80" as="geometry" />
        </mxCell>
        <mxCell id="g9mIRtQmPd2xS8MklQOe-13" value="Remove Book" style="ellipse;whiteSpace=wrap;html=1;fillColor=#ffe6cc;strokeColor=#d79b00;" vertex="1" parent="1">
          <mxGeometry x="690" y="290" width="120" height="80" as="geometry" />
        </mxCell>
        <mxCell id="g9mIRtQmPd2xS8MklQOe-14" value="Update Book" style="ellipse;whiteSpace=wrap;html=1;fillColor=#ffe6cc;strokeColor=#d79b00;" vertex="1" parent="1">
          <mxGeometry x="697" y="380" width="120" height="80" as="geometry" />
        </mxCell>
        <mxCell id="g9mIRtQmPd2xS8MklQOe-15" value="" style="endArrow=classic;html=1;rounded=0;" edge="1" parent="1">
          <mxGeometry width="50" height="50" relative="1" as="geometry">
            <mxPoint x="70" y="270" as="sourcePoint" />
            <mxPoint x="280" y="150" as="targetPoint" />
          </mxGeometry>
        </mxCell>
        <mxCell id="g9mIRtQmPd2xS8MklQOe-16" value="" style="endArrow=classic;html=1;rounded=0;entryX=0.02;entryY=0.692;entryDx=0;entryDy=0;entryPerimeter=0;" edge="1" parent="1" target="g9mIRtQmPd2xS8MklQOe-7">
          <mxGeometry width="50" height="50" relative="1" as="geometry">
            <mxPoint x="80" y="320" as="sourcePoint" />
            <mxPoint x="270" y="220" as="targetPoint" />
          </mxGeometry>
        </mxCell>
        <mxCell id="g9mIRtQmPd2xS8MklQOe-17" value="" style="endArrow=classic;html=1;rounded=0;entryX=0.02;entryY=0.692;entryDx=0;entryDy=0;entryPerimeter=0;" edge="1" parent="1">
          <mxGeometry width="50" height="50" relative="1" as="geometry">
            <mxPoint x="78" y="395" as="sourcePoint" />
            <mxPoint x="288" y="320" as="targetPoint" />
          </mxGeometry>
        </mxCell>
        <mxCell id="g9mIRtQmPd2xS8MklQOe-18" value="" style="endArrow=classic;html=1;rounded=0;entryX=0.011;entryY=0.636;entryDx=0;entryDy=0;entryPerimeter=0;" edge="1" parent="1" target="g9mIRtQmPd2xS8MklQOe-11">
          <mxGeometry width="50" height="50" relative="1" as="geometry">
            <mxPoint x="70" y="427.5" as="sourcePoint" />
            <mxPoint x="280" y="352.5" as="targetPoint" />
          </mxGeometry>
        </mxCell>
        <mxCell id="g9mIRtQmPd2xS8MklQOe-19" value="" style="endArrow=classic;html=1;rounded=0;entryX=0.02;entryY=0.692;entryDx=0;entryDy=0;entryPerimeter=0;exitX=0.678;exitY=-0.016;exitDx=0;exitDy=0;exitPerimeter=0;" edge="1" parent="1" source="g9mIRtQmPd2xS8MklQOe-11">
          <mxGeometry width="50" height="50" relative="1" as="geometry">
            <mxPoint x="487" y="335" as="sourcePoint" />
            <mxPoint x="697" y="260" as="targetPoint" />
          </mxGeometry>
        </mxCell>
        <mxCell id="g9mIRtQmPd2xS8MklQOe-20" value="" style="endArrow=classic;html=1;rounded=0;exitX=0.678;exitY=-0.016;exitDx=0;exitDy=0;exitPerimeter=0;entryX=0;entryY=0.5;entryDx=0;entryDy=0;" edge="1" parent="1" target="g9mIRtQmPd2xS8MklQOe-13">
          <mxGeometry width="50" height="50" relative="1" as="geometry">
            <mxPoint x="520" y="370" as="sourcePoint" />
            <mxPoint x="671" y="321" as="targetPoint" />
          </mxGeometry>
        </mxCell>
        <mxCell id="g9mIRtQmPd2xS8MklQOe-21" value="" style="endArrow=classic;html=1;rounded=0;exitX=0.678;exitY=-0.016;exitDx=0;exitDy=0;exitPerimeter=0;entryX=0;entryY=0.5;entryDx=0;entryDy=0;" edge="1" parent="1" target="g9mIRtQmPd2xS8MklQOe-14">
          <mxGeometry width="50" height="50" relative="1" as="geometry">
            <mxPoint x="520" y="410" as="sourcePoint" />
            <mxPoint x="690" y="370" as="targetPoint" />
          </mxGeometry>
        </mxCell>
        <mxCell id="g9mIRtQmPd2xS8MklQOe-22" value="Charge Late" style="ellipse;whiteSpace=wrap;html=1;fillColor=#ffe6cc;strokeColor=#d79b00;" vertex="1" parent="1">
          <mxGeometry x="590" y="470" width="120" height="80" as="geometry" />
        </mxCell>
        <mxCell id="g9mIRtQmPd2xS8MklQOe-23" value="Return Fine" style="ellipse;whiteSpace=wrap;html=1;fillColor=#ffe6cc;strokeColor=#d79b00;" vertex="1" parent="1">
          <mxGeometry x="600" y="570" width="120" height="80" as="geometry" />
        </mxCell>
        <mxCell id="g9mIRtQmPd2xS8MklQOe-24" value="" style="endArrow=classic;html=1;rounded=0;exitX=0.678;exitY=-0.016;exitDx=0;exitDy=0;exitPerimeter=0;entryX=0;entryY=0.5;entryDx=0;entryDy=0;" edge="1" parent="1">
          <mxGeometry width="50" height="50" relative="1" as="geometry">
            <mxPoint x="413" y="500" as="sourcePoint" />
            <mxPoint x="590" y="510" as="targetPoint" />
          </mxGeometry>
        </mxCell>
        <mxCell id="g9mIRtQmPd2xS8MklQOe-25" value="" style="endArrow=classic;html=1;rounded=0;exitX=0.678;exitY=-0.016;exitDx=0;exitDy=0;exitPerimeter=0;entryX=0.013;entryY=0.234;entryDx=0;entryDy=0;entryPerimeter=0;" edge="1" parent="1" target="g9mIRtQmPd2xS8MklQOe-23">
          <mxGeometry width="50" height="50" relative="1" as="geometry">
            <mxPoint x="408" y="530" as="sourcePoint" />
            <mxPoint x="585" y="540" as="targetPoint" />
          </mxGeometry>
        </mxCell>
      </root>
    </mxGraphModel>
  </diagram>
  <diagram id="0YTbXbtSmibvAaB3CGsE" name="Member">
    <mxGraphModel dx="738" dy="346" grid="1" gridSize="10" guides="1" tooltips="1" connect="1" arrows="1" fold="1" page="1" pageScale="1" pageWidth="850" pageHeight="1100" math="0" shadow="0">
      <root>
        <mxCell id="0" />
        <mxCell id="1" parent="0" />
        <mxCell id="zzboSMzcUAJYb3Vwh90X-2" value="Member" style="shape=umlActor;verticalLabelPosition=bottom;verticalAlign=top;html=1;outlineConnect=0;" vertex="1" parent="1">
          <mxGeometry x="100" y="130" width="30" height="300" as="geometry" />
        </mxCell>
        <mxCell id="zzboSMzcUAJYb3Vwh90X-3" value="Inquiry for membership" style="ellipse;whiteSpace=wrap;html=1;fillColor=#1ba1e2;fontColor=#ffffff;strokeColor=#006EAF;" vertex="1" parent="1">
          <mxGeometry x="350" y="150" width="160" height="60" as="geometry" />
        </mxCell>
        <mxCell id="zzboSMzcUAJYb3Vwh90X-5" value="Request for book issue" style="ellipse;whiteSpace=wrap;html=1;fillColor=#1ba1e2;fontColor=#ffffff;strokeColor=#006EAF;" vertex="1" parent="1">
          <mxGeometry x="350" y="220" width="160" height="60" as="geometry" />
        </mxCell>
        <mxCell id="zzboSMzcUAJYb3Vwh90X-6" value="Request for book return" style="ellipse;whiteSpace=wrap;html=1;fillColor=#1ba1e2;fontColor=#ffffff;strokeColor=#006EAF;" vertex="1" parent="1">
          <mxGeometry x="345" y="290" width="160" height="60" as="geometry" />
        </mxCell>
        <mxCell id="zzboSMzcUAJYb3Vwh90X-7" value="Search Book" style="ellipse;whiteSpace=wrap;html=1;fillColor=#1ba1e2;fontColor=#ffffff;strokeColor=#006EAF;" vertex="1" parent="1">
          <mxGeometry x="350" y="370" width="160" height="60" as="geometry" />
        </mxCell>
        <mxCell id="zzboSMzcUAJYb3Vwh90X-8" value="" style="endArrow=classic;html=1;rounded=0;entryX=0.003;entryY=0.682;entryDx=0;entryDy=0;entryPerimeter=0;" edge="1" parent="1" target="zzboSMzcUAJYb3Vwh90X-3">
          <mxGeometry width="50" height="50" relative="1" as="geometry">
            <mxPoint x="120" y="270" as="sourcePoint" />
            <mxPoint x="170" y="220" as="targetPoint" />
          </mxGeometry>
        </mxCell>
        <mxCell id="zzboSMzcUAJYb3Vwh90X-9" value="" style="endArrow=classic;html=1;rounded=0;entryX=0;entryY=0.5;entryDx=0;entryDy=0;" edge="1" parent="1" target="zzboSMzcUAJYb3Vwh90X-5">
          <mxGeometry width="50" height="50" relative="1" as="geometry">
            <mxPoint x="115" y="299" as="sourcePoint" />
            <mxPoint x="345" y="220" as="targetPoint" />
          </mxGeometry>
        </mxCell>
        <mxCell id="zzboSMzcUAJYb3Vwh90X-10" value="" style="endArrow=classic;html=1;rounded=0;" edge="1" parent="1">
          <mxGeometry width="50" height="50" relative="1" as="geometry">
            <mxPoint x="115" y="329" as="sourcePoint" />
            <mxPoint x="340" y="320" as="targetPoint" />
          </mxGeometry>
        </mxCell>
        <mxCell id="zzboSMzcUAJYb3Vwh90X-11" value="" style="endArrow=classic;html=1;rounded=0;entryX=0;entryY=0.5;entryDx=0;entryDy=0;" edge="1" parent="1" target="zzboSMzcUAJYb3Vwh90X-7">
          <mxGeometry width="50" height="50" relative="1" as="geometry">
            <mxPoint x="125" y="339" as="sourcePoint" />
            <mxPoint x="350" y="330" as="targetPoint" />
          </mxGeometry>
        </mxCell>
      </root>
    </mxGraphModel>
  </diagram>
  <diagram id="lqfC1PjzzTobM70PeqtB" name="ERD">
    <mxGraphModel dx="1292" dy="605" grid="1" gridSize="10" guides="1" tooltips="1" connect="1" arrows="1" fold="1" page="1" pageScale="1" pageWidth="850" pageHeight="1100" math="0" shadow="0">
      <root>
        <mxCell id="0" />
        <mxCell id="1" parent="0" />
      </root>
    </mxGraphModel>
  </diagram>
</mxfile>
